PathFileType	4	(X/Y/Z)	C:/Users/beibeiliu/ov580/test_trc/User2\sequence.2_training_dense_right.trc
DataRate	CameraRate	NumFrames	NumMarkers	Units	OrigDataRate	OrigDataStartFrame	OrigNumFrames
120	120	10	19	mm	120	27	79
Frame#	Time	ThumbCMC			ThumbMCP			ThumbIP			ThumbTip			IndexMCP			IndexPIP			IndexTip			MiddleMCP			MiddlePIP			MiddleTip			RingMCP			RingPIP			RingTip			PinkyMCP			PinkyPIP			PinkyTip			BackHand1			BackHand2			BackHand3	
		X0	Y0	Z0	X1	Y1	Z1	X2	Y2	Z2	X3	Y3	Z3	X4	Y4	Z4	X5	Y5	Z5	X6	Y6	Z6	X7	Y7	Z7	X8	Y8	Z8	X9	Y9	Z9	X10	Y10	Z10	X11	Y11	Z11	X12	Y12	Z12	X13	Y13	Z13	X14	Y14	Z14	X15	Y15	Z15	X16	Y16	Z16	X17	Y17	Z17	X18	Y18	Z18	
26	0.216667	20.2593	46.5024	15.5028	-1.2063	52.8993	-11.0865	-17.2431	39.049	-36.9436	-29.0961	22.8475	-53.4517	-0.51734	17.6467	-65.4167	-12.5847	3.36705	-86.2189	-28.0945	-7.70188	-108.564	10.0466	-7.03094	-69.0139	-10.6243	-12.8971	-92.4175	-24.2098	-23.1837	-119.039	19.0672	-20.6623	-61.2786	4.70388	-28.9551	-81.2594	-10.7295	-35.0067	-103.926	28.1841	-38.4628	-44.7563	14.0437	-41.9135	-62.4607	3.28471	-45.5979	-88.3708	54.8943	-10.5701	-14.7942	72.2161	-0.163865	6.93473	47.3769	28.4184	-6.36316	
27	0.225	37.8857	54.6039	13.6794	18.251	68.2621	-14.6611	-4.63904	65.2013	-37.9374	-24.9526	50.6266	-54.2379	-2.32331	27.9842	-61.1632	-19.1272	26.7283	-77.9829	-40.5525	14.8067	-97.4772	-2.23308	9.50646	-61.2613	-24.8996	2.30311	-82.2153	-42.9828	0.828847	-103.16	-2.31515	-13.0093	-54.475	-19.4483	-15.6166	-69.1866	-39.8746	-16.9153	-94.4312	1.83905	-29.2506	-34.5107	-17.2453	-25.4226	-53.3014	-29.5046	-28.4204	-72.3929	40.1838	-6.38495	-11.9426	62.348	-6.17525	10.5135	53.5354	26.4417	-4.99996	
28	0.233333	57.8279	63.5962	8.78188	39.9443	75.4466	-17.083	13.4968	79.3336	-39.3309	-10.6713	74.3968	-49.4971	0.0884998	47.4655	-56.4165	-23.5579	49.3936	-73.0842	-43.4691	48.1207	-85.6051	-13.6634	32.3092	-57.6272	-34.8205	34.404	-71.686	-61.191	34.2069	-94.4819	-18.5892	12.7416	-41.9359	-36.6965	17.2275	-57.2597	-58.2852	21.504	-79.6832	-18.8181	0.484785	-22.6828	-38.6932	3.1091	-36.7939	-51.97	4.28339	-56.7505	28.3082	-2.11919	-4.77747	51.6016	-3.18877	11.3467	54.0683	26.5869	-9.62094	
29	0.241667	67.7978	57.8121	-0.14942	58.6576	73.6413	-23.4355	30.2764	84.489	-50.9835	4.62457	88.4493	-57.3497	3.19736	58.3415	-58.9264	-15.3992	68.5774	-74.4955	-35.0059	76.8686	-87.5612	-14.3107	45.5585	-53.9773	-35.1612	58.3241	-69.6445	-55.2478	65.9534	-87.4313	-23.7147	36.313	-39.0211	-42.1841	45.5888	-52.6979	-63.6054	52.4872	-73.2582	-25.5554	27.5702	-17.003	-43.6042	34.457	-29.9408	-57.0647	40.2416	-48.3414	19.4224	11.736	-6.8213	42.9591	0.448574	15.589	53.1497	25.2661	-12.3946	
30	0.25	77.9511	46.1368	-1.28154	75.9543	62.8314	-34.294	49.8862	77.4856	-55.2919	31.7643	90.2673	-67.6136	21.2792	60.3057	-64.6007	-2.46232	74.8639	-82.3146	-18.9262	85.7257	-94.0458	-6.7003	56.7122	-60.6944	-23.1427	70.7863	-76.1603	-43.4461	84.2664	-97.1814	-17.3162	49.1955	-42.445	-34.432	62.8304	-56.4001	-45.6208	76.801	-77.8729	-22.7857	44.5068	-18.1737	-38.1362	58.4647	-35.9053	-49.076	62.3271	-51.484	14.6571	13.6528	-3.85358	34.486	1.55793	15.8547	52.3683	18.2993	-12.7177	
31	0.258333	85.6773	35.9488	-7.95085	87.4456	50.141	-41.0891	67.4349	64.8666	-64.4591	50.8584	79.2251	-82.6478	32.9453	52.7649	-71.6679	19.6946	69.1721	-94.5659	4.53924	82.6797	-111.064	11.5114	51.7921	-68.2849	-2.68051	69.2797	-88.8516	-17.3272	81.886	-112.273	-7.56957	52.7878	-54.0342	-17.3261	67.1462	-73.3289	-28.1124	78.6013	-93.314	-15.1044	50.238	-31.0185	-26.664	62.5173	-46.769	-34.7493	71.7628	-69.9338	19.2215	15.5569	-10.285	36.5167	2.82523	11.9097	60.9643	14.0034	-15.7903	
32	0.266667	93.7942	28.2296	-10.1992	95.5227	38.3487	-43.5515	80.6937	53.5287	-74.1057	67.8901	65.8549	-88.4051	46.6492	41.3783	-85.0127	33.322	53.0058	-103.608	18.0673	64.4707	-123.739	21.2302	40.7032	-80.6881	9.65255	53.487	-104	-1.85961	65.3452	-128.982	7.31481	40.5258	-66.0835	-4.98586	53.2714	-87.7787	-14.0216	64.406	-111.261	-6.01434	41.7575	-41.0892	-10.7282	52.928	-60.9333	-20.01	59.1379	-81.5714	25.7405	9.0204	-15.4586	41.469	-2.15788	7.86104	61.8938	6.90821	-18.205	
33	0.275	102.061	20.1036	-16.1287	104.946	28.6502	-48.425	93.3847	41.3128	-78.9577	75.8344	50.3323	-96.247	53.2244	24.5045	-89.2209	41.64	31.5991	-111.879	29.3446	39.4729	-134.312	34.0067	22.099	-87.2262	20.8456	31.6812	-114.517	9.06133	37.7147	-143.331	17.1315	22.607	-73.2749	5.70999	32.0133	-98.4544	-3.28684	38.3165	-121.908	2.03852	24.5707	-48.157	-2.22298	34.4096	-71.9279	-12.1547	35.3963	-97.8928	37.2102	-2.24814	-22.1197	49.3814	-13.1047	7.41545	71.7325	-5.07096	-21.0756	
34	0.283333	106.258	13.2108	-19.7987	110.597	19.238	-54.9693	96.5068	25.7501	-85.0691	84.4768	33.2302	-103.067	65.9733	4.71381	-97.2684	54.2951	7.80777	-116.275	39.5809	8.96458	-145.439	45.7463	-0.869847	-93.7853	32.4069	4.19137	-120.438	22.1492	5.43322	-147.916	25.1549	-1.27279	-83.3595	19.5259	3.83294	-105.117	9.03363	5.79438	-131.436	12.1085	2.68237	-63.0469	6.55763	7.48699	-81.79	2.33445	6.38817	-105.93	46.9082	-16.7815	-27.9051	56.8774	-23.6987	-0.593048	80.4438	-15.3205	-24.3931	
35	0.291667	112.965	8.18666	-26.1078	119.421	13.0306	-55.9996	103.947	13.3014	-87.7994	90.9581	17.9121	-108.105	81.9904	-15.1243	-100.881	73.8351	-14.8436	-123.122	58.7175	-19.3761	-152.316	57.6685	-25.5857	-98.5322	50.6031	-23.3146	-127.556	42.3439	-27.8224	-156.974	39.7232	-27.7511	-89.5972	33.9881	-26.5185	-111.517	28.2375	-27.8932	-141.636	25.2845	-25.2822	-65.0397	20.4057	-23.4637	-89.2879	15.8558	-27.325	-117.273	58.6846	-35.7616	-30.2132	69.1121	-38.5589	-1.96778	92.6639	-24.0348	-29.5639	
